<svg width="272" height="66" viewBox="0 0 272 66" fill="none" xmlns="http://www.w3.org/2000/svg">
<rect x="14" y="18" width="30" height="30" rx="8" fill="#805CFF"/>
<path d="M28.5909 42.2727V40.7207C25.2044 40.5256 23.147 38.781 23.1364 36.1364H26.2045C26.28 37.2588 27.2213 38.1158 28.5909 38.2671V34.0909L27.4501 33.7926C24.8507 33.1884 23.4598 31.6879 23.4598 29.4426C23.4598 26.7959 25.3557 25.0602 28.5909 24.8011V23.1818H29.9545V24.8011C33.2524 25.0696 35.0256 26.8355 35.0682 29.3182H32C31.9676 28.2929 31.3254 27.4692 29.9545 27.358V31.2784L31.2679 31.5886C34.0288 32.1929 35.4091 33.6222 35.4091 35.9659C35.4091 38.7077 33.5452 40.4778 29.9545 40.7097V42.2727H28.5909ZM28.5909 31.0227V27.358C27.4152 27.4227 26.5766 28.145 26.5766 29.1703C26.5766 30.1206 27.275 30.7419 28.5909 31.0227ZM29.9545 34.3466V38.2671C31.5803 38.2014 32.3571 37.4608 32.3571 36.3166C32.3571 35.2692 31.5803 34.5639 29.9545 34.3466Z" fill="white"/>
<path d="M58.68 38.1L60.28 36.58C60.52 36.98 60.8533 37.3267 61.28 37.62C61.72 37.9133 62.2333 38.06 62.82 38.06C63.62 38.06 64.2467 37.8067 64.7 37.3C65.1533 36.7933 65.38 36.0067 65.38 34.94V26.2H67.74V35.22C67.74 36.3 67.52 37.2133 67.08 37.96C66.6533 38.6933 66.0733 39.2533 65.34 39.64C64.6067 40.0267 63.7867 40.22 62.88 40.22C62.0133 40.22 61.2133 40.0267 60.48 39.64C59.7467 39.24 59.1467 38.7267 58.68 38.1ZM61.88 28.1V26.2H66.84V28.1H61.88ZM70.5453 33.1C70.5453 31.9667 70.7186 30.96 71.0653 30.08C71.412 29.2 71.8853 28.4533 72.4853 27.84C73.0986 27.2267 73.7986 26.7667 74.5853 26.46C75.3853 26.14 76.232 25.98 77.1253 25.98C77.9653 25.98 78.752 26.1133 79.4853 26.38C80.232 26.6333 80.9386 27.0267 81.6053 27.56L80.2653 29.44C79.812 29.04 79.3253 28.74 78.8053 28.54C78.2853 28.3267 77.7386 28.22 77.1653 28.22C76.3653 28.22 75.6453 28.4067 75.0053 28.78C74.3786 29.14 73.8786 29.68 73.5053 30.4C73.1453 31.12 72.9653 32.02 72.9653 33.1C72.9653 34.1667 73.152 35.0733 73.5253 35.82C73.8986 36.5667 74.4053 37.14 75.0453 37.54C75.6853 37.9267 76.412 38.12 77.2253 38.12C77.7053 38.12 78.1653 38.06 78.6053 37.94C79.0586 37.8067 79.492 37.6 79.9053 37.32L82.0253 38.36C81.332 38.92 80.5653 39.3733 79.7253 39.72C78.8853 40.0533 77.992 40.22 77.0453 40.22C76.152 40.22 75.312 40.0667 74.5253 39.76C73.7386 39.44 73.0453 38.9733 72.4453 38.36C71.8586 37.7467 71.392 37 71.0453 36.12C70.712 35.24 70.5453 34.2333 70.5453 33.1ZM76.8253 34.92V32.86H80.8853V34.92H76.8253ZM79.6853 38.6V32.86H82.0253V38.36L79.6853 38.6ZM90.3883 40V26.2H92.7483V40H90.3883ZM91.5483 34.58V32.48H98.4883V34.58H91.5483ZM91.5483 28.3V26.2H99.2883V28.3H91.5483ZM101.79 40V29.62H104.03V40H101.79ZM101.51 26.6C101.51 26.2 101.643 25.8667 101.91 25.6C102.177 25.32 102.51 25.18 102.91 25.18C103.337 25.18 103.677 25.32 103.93 25.6C104.183 25.8667 104.31 26.2 104.31 26.6C104.31 26.9867 104.183 27.32 103.93 27.6C103.677 27.8667 103.337 28 102.91 28C102.51 28 102.177 27.8667 101.91 27.6C101.643 27.32 101.51 26.9867 101.51 26.6ZM107.134 29.62H109.274L109.674 31.62V40H107.434V32.1C107.434 31.82 107.421 31.5667 107.394 31.34C107.381 31.1 107.348 30.8333 107.294 30.54L107.134 29.62ZM109.374 32.94V31.32C109.814 30.76 110.328 30.3067 110.914 29.96C111.501 29.6 112.134 29.42 112.814 29.42C113.481 29.42 114.088 29.5733 114.634 29.88C115.181 30.1867 115.614 30.6467 115.934 31.26C116.268 31.8733 116.434 32.6533 116.434 33.6V40H114.174V33.92C114.174 33.36 114.088 32.9067 113.914 32.56C113.741 32.2 113.494 31.94 113.174 31.78C112.868 31.6067 112.514 31.52 112.114 31.52C111.634 31.52 111.154 31.6467 110.674 31.9C110.208 32.14 109.774 32.4867 109.374 32.94ZM119.059 37.32C119.059 36.6933 119.226 36.1267 119.559 35.62C119.892 35.1133 120.426 34.7 121.159 34.38C121.892 34.06 122.852 33.88 124.039 33.84L125.499 33.8V35.24L124.159 35.34C123.386 35.3933 122.786 35.5133 122.359 35.7C121.946 35.8733 121.652 36.08 121.479 36.32C121.319 36.56 121.239 36.82 121.239 37.1C121.239 37.4867 121.359 37.7933 121.599 38.02C121.839 38.2333 122.152 38.34 122.539 38.34C123.072 38.34 123.586 38.2067 124.079 37.94C124.586 37.66 125.046 37.2867 125.459 36.82V38.34C125.086 38.8733 124.599 39.32 123.999 39.68C123.399 40.04 122.732 40.22 121.999 40.22C121.479 40.22 120.992 40.1 120.539 39.86C120.099 39.62 119.739 39.2867 119.459 38.86C119.192 38.42 119.059 37.9067 119.059 37.32ZM119.379 30.42C119.859 30.14 120.446 29.9067 121.139 29.72C121.832 29.52 122.519 29.42 123.199 29.42C124.012 29.42 124.732 29.5733 125.359 29.88C125.999 30.1733 126.499 30.6267 126.859 31.24C127.219 31.84 127.399 32.5933 127.399 33.5V37.54C127.399 37.82 127.406 38.0733 127.419 38.3C127.446 38.5267 127.486 38.7867 127.539 39.08L127.699 40H125.559L125.159 38V33.7C125.159 32.9133 124.966 32.34 124.579 31.98C124.192 31.62 123.639 31.44 122.919 31.44C122.386 31.44 121.886 31.52 121.419 31.68C120.952 31.84 120.506 32.0333 120.079 32.26L119.379 30.42ZM130.396 29.62H132.536L132.936 31.62V40H130.696V32.1C130.696 31.82 130.683 31.5667 130.656 31.34C130.643 31.1 130.609 30.8333 130.556 30.54L130.396 29.62ZM132.636 32.94V31.32C133.076 30.76 133.589 30.3067 134.176 29.96C134.763 29.6 135.396 29.42 136.076 29.42C136.743 29.42 137.349 29.5733 137.896 29.88C138.443 30.1867 138.876 30.6467 139.196 31.26C139.529 31.8733 139.696 32.6533 139.696 33.6V40H137.436V33.92C137.436 33.36 137.349 32.9067 137.176 32.56C137.003 32.2 136.756 31.94 136.436 31.78C136.129 31.6067 135.776 31.52 135.376 31.52C134.896 31.52 134.416 31.6467 133.936 31.9C133.469 32.14 133.036 32.4867 132.636 32.94ZM142.281 34.96C142.281 33.8133 142.507 32.8267 142.961 32C143.414 31.1733 144.027 30.54 144.801 30.1C145.587 29.6467 146.474 29.42 147.461 29.42C148.047 29.42 148.621 29.52 149.181 29.72C149.741 29.92 150.227 30.2 150.641 30.56L149.541 32.26C149.287 32.0067 148.981 31.8067 148.621 31.66C148.261 31.5 147.867 31.42 147.441 31.42C146.921 31.42 146.441 31.5533 146.001 31.82C145.561 32.0867 145.214 32.48 144.961 33C144.707 33.52 144.581 34.16 144.581 34.92C144.581 35.6533 144.707 36.2667 144.961 36.76C145.214 37.24 145.554 37.6 145.981 37.84C146.421 38.08 146.901 38.2 147.421 38.2C147.874 38.2 148.287 38.1267 148.661 37.98C149.047 37.82 149.374 37.6133 149.641 37.36L150.701 39.08C150.287 39.4267 149.781 39.7067 149.181 39.92C148.594 40.12 147.967 40.22 147.301 40.22C146.327 40.22 145.461 40.02 144.701 39.62C143.954 39.2067 143.361 38.6133 142.921 37.84C142.494 37.0533 142.281 36.0933 142.281 34.96ZM153.04 40V29.62H155.28V40H153.04ZM152.76 26.6C152.76 26.2 152.893 25.8667 153.16 25.6C153.427 25.32 153.76 25.18 154.16 25.18C154.587 25.18 154.927 25.32 155.18 25.6C155.433 25.8667 155.56 26.2 155.56 26.6C155.56 26.9867 155.433 27.32 155.18 27.6C154.927 27.8667 154.587 28 154.16 28C153.76 28 153.427 27.8667 153.16 27.6C152.893 27.32 152.76 26.9867 152.76 26.6ZM157.964 34.96C157.964 33.7733 158.171 32.7667 158.584 31.94C159.011 31.1133 159.584 30.4867 160.304 30.06C161.038 29.6333 161.858 29.42 162.764 29.42C163.604 29.42 164.358 29.62 165.024 30.02C165.691 30.4067 166.211 30.9867 166.584 31.76C166.971 32.5333 167.164 33.4867 167.164 34.62C167.164 34.7667 167.158 34.92 167.144 35.08C167.131 35.2267 167.118 35.36 167.104 35.48H159.744V33.86H165.424L164.984 34.62C164.984 33.4333 164.764 32.5867 164.324 32.08C163.898 31.56 163.364 31.3 162.724 31.3C162.231 31.3 161.791 31.4333 161.404 31.7C161.031 31.9533 160.738 32.3467 160.524 32.88C160.311 33.4 160.204 34.0667 160.204 34.88C160.204 35.64 160.344 36.2733 160.624 36.78C160.904 37.2733 161.278 37.6467 161.744 37.9C162.211 38.14 162.744 38.26 163.344 38.26C163.798 38.26 164.231 38.1933 164.644 38.06C165.058 37.9133 165.418 37.7267 165.724 37.5L166.584 39.24C166.118 39.56 165.591 39.8067 165.004 39.98C164.431 40.14 163.824 40.22 163.184 40.22C162.144 40.22 161.231 40.02 160.444 39.62C159.671 39.2067 159.064 38.6067 158.624 37.82C158.184 37.0333 157.964 36.08 157.964 34.96ZM168.937 38.96L169.997 37.32C170.384 37.6 170.831 37.8467 171.337 38.06C171.844 38.26 172.404 38.36 173.017 38.36C173.631 38.36 174.077 38.2667 174.357 38.08C174.637 37.88 174.777 37.6267 174.777 37.32C174.777 37.12 174.717 36.9333 174.597 36.76C174.477 36.5867 174.271 36.42 173.977 36.26C173.684 36.1 173.271 35.94 172.737 35.78C171.497 35.38 170.617 34.9133 170.097 34.38C169.577 33.8333 169.317 33.1933 169.317 32.46C169.317 31.8733 169.484 31.3533 169.817 30.9C170.151 30.4467 170.611 30.0867 171.197 29.82C171.797 29.5533 172.497 29.42 173.297 29.42C173.897 29.42 174.504 29.5133 175.117 29.7C175.731 29.8733 176.271 30.1267 176.737 30.46L175.737 32.12C175.391 31.88 174.984 31.68 174.517 31.52C174.064 31.3467 173.597 31.26 173.117 31.26C172.584 31.26 172.177 31.3533 171.897 31.54C171.631 31.7267 171.497 31.96 171.497 32.24C171.497 32.4533 171.557 32.64 171.677 32.8C171.797 32.9467 172.004 33.0933 172.297 33.24C172.604 33.3733 173.031 33.5267 173.577 33.7C174.457 33.9667 175.151 34.2733 175.657 34.62C176.177 34.9533 176.544 35.3267 176.757 35.74C176.971 36.14 177.077 36.5933 177.077 37.1C177.077 37.7133 176.904 38.2533 176.557 38.72C176.211 39.1867 175.717 39.5533 175.077 39.82C174.451 40.0867 173.711 40.22 172.857 40.22C172.084 40.22 171.357 40.1 170.677 39.86C169.997 39.62 169.417 39.32 168.937 38.96Z" fill="#242A31"/>
</svg>